# xmcd
#
# Track frame offsets:
#	150
#	19800
#	49050
#	68700
#
# Disc length: 1302 seconds
#
# Revision: 1
# Processed by: cddbd v1.5PL3 Copyright (c) Steve Scherf et al.
# Submitted via: CDex 1.50Beta5
#
DISCID=2d051404
DTITLE=V6 - MADE IN JAPAN
DYEAR=1996
DGENRE=Pop
TTITLE0=MADE IN JAPAN
TTITLE1=大丈夫
TTITLE2=MADE IN JAPAN(Karaoke)
TTITLE3=大丈夫(Karaoke)
EXTD=
EXTT0=
EXTT1=
EXTT2=
EXTT3=
PLAYORDER=
